<?xml version="1.0" encoding="utf-8"?>
<!-- Generator: Adobe Illustrator 18.1.1, SVG Export Plug-In . SVG Version: 6.00 Build 0)  -->
<svg version="1.1" xmlns="http://www.w3.org/2000/svg" xmlns:xlink="http://www.w3.org/1999/xlink" x="0px" y="0px"
	 viewBox="0 0 32 32" enable-background="new 0 0 32 32" xml:space="preserve">
<g id="Guides">
</g>
<g id="_x32_0">
</g>
<g id="_x31_9">
</g>
<g id="_x31_8">
</g>
<g id="_x31_7">
</g>
<g id="_x31_6">
</g>
<g id="_x31_5">
</g>
<g id="_x31_4">
</g>
<g id="_x31_3">
</g>
<g id="_x31_2">
</g>
<g id="_x31_1">
</g>
<g id="_x31_0">
</g>
<g id="_x30_9">
</g>
<g id="_x30_8">
	<path d="M29.7070313,7.2929688l-5-5C24.5195313,2.1054688,24.265625,2,24,2H10C9.4477539,2,9,2.4477539,9,3v8.069458
		C5.0600586,11.5640869,2,14.9282227,2,19s3.0600586,7.4359131,7,7.930542V29c0,0.5522461,0.4477539,1,1,1h19
		c0.5527344,0,1-0.4477539,1-1V8C30,7.7348633,29.8945313,7.4804688,29.7070313,7.2929688z M27.5859375,8H24V4.4140625L27.5859375,8
		z M4,19c0-3.3085938,2.6914063-6,6-6s6,2.6914063,6,6s-2.6914063,6-6,6S4,22.3085938,4,19z M28,28H11v-1.069458
		C12.0274048,26.8015137,12.9955444,26.4816284,13.8643799,26H25c0.5527344,0,1-0.4477539,1-1s-0.4472656-1-1-1h-8.7649536
		c0.4835815-0.6018066,0.8810425-1.274231,1.1759644-2H25c0.5527344,0,1-0.4477539,1-1s-0.4472656-1-1-1h-7.069458
		C17.9717407,19.6716309,18,19.3393555,18,19s-0.0282593-0.6716309-0.069458-1H25c0.5527344,0,1-0.4477539,1-1s-0.4472656-1-1-1
		h-7.5889893c-0.2949219-0.725769-0.6923828-1.3981934-1.1759644-2H25c0.5527344,0,1-0.4477539,1-1s-0.4472656-1-1-1H13.8643799
		C12.9955444,11.5183716,12.0274048,11.1984863,11,11.069458V4h11v5c0,0.5522461,0.4472656,1,1,1h5V28z"/>
	<path d="M13.6245117,16.2192383c-0.4301758-0.3442383-1.0600586-0.2758789-1.4052734,0.15625l-3.3022461,4.1274414
		l-1.2099609-1.2099609c-0.390625-0.390625-1.0234375-0.390625-1.4140625,0s-0.390625,1.0234375,0,1.4140625l2,2
		C8.480957,22.8950195,8.7353516,23,9,23c0.0185547,0,0.0366211-0.0004883,0.0551758-0.0014648
		c0.2841797-0.015625,0.5478516-0.1518555,0.7255859-0.3740234l4-5
		C14.1259766,17.1933594,14.0561523,16.5639648,13.6245117,16.2192383z"/>
</g>
<g id="_x30_7">
</g>
<g id="_x30_6">
</g>
<g id="_x30_5">
</g>
<g id="_x30_4">
</g>
<g id="_x30_3">
</g>
<g id="_x30_2">
</g>
<g id="_x30_1">
</g>
</svg>
